<svg width="17" height="17" viewBox="0 0 17 17" fill="none" xmlns="http://www.w3.org/2000/svg">
<g clip-path="url(#clip0_0_6)">
<path d="M16.4523 2.27176C11.5277 0.521085 6.17495 0.376488 1.16302 1.85874C0.963802 1.90641 0.776232 1.99374 0.61151 2.11551C0.446788 2.23728 0.308292 2.39099 0.204291 2.56747C0.10029 2.74395 0.0329167 2.93958 0.00619382 3.14267C-0.020529 3.34577 -0.00605357 3.55216 0.048756 3.74954C0.323068 4.8504 0.723194 6.11523 1.20376 7.26198C1.21201 7.28879 1.2249 7.2759 1.2249 7.24909C1.15529 6.71129 1.56882 6.03221 2.3799 5.78523C6.27775 4.54472 10.4726 4.60026 14.3362 5.94352C14.4787 5.99227 14.6295 6.01198 14.7798 6.00151C14.93 5.99103 15.0767 5.95057 15.211 5.88253C15.3454 5.81448 15.4648 5.72021 15.5621 5.60529C15.6595 5.49037 15.7329 5.35712 15.7779 5.2134C16.2585 3.66652 16.4523 2.61619 16.5003 2.35323C16.5085 2.30424 16.4652 2.28568 16.4523 2.27227V2.27176ZM4.57079 5.67488C3.9804 5.79812 3.16416 5.99199 2.5516 6.19515C1.32699 6.61744 1.38371 8.1076 2.03597 8.58301C2.08393 8.30663 2.3799 7.93074 2.7099 7.8039C3.93244 7.32333 5.24522 7.03613 6.57244 6.91754C5.89801 6.64374 5.24007 6.25135 4.57955 5.67437L4.57079 5.67488ZM14.3197 8.65829C12.5603 7.83164 10.6531 7.36608 8.71074 7.28911C6.76837 7.21215 4.83028 7.52535 3.01102 8.21021C2.42785 8.43038 2.06279 9.13988 2.42785 9.81329C3.0656 10.9663 3.78935 12.0696 4.59296 13.1138C4.47746 12.7137 4.68165 11.9727 5.4654 11.7304C7.63308 11.0642 9.90751 11.3468 11.4193 11.9588C11.8463 12.1305 12.4506 12.0264 12.7893 11.519C13.3671 10.629 13.8925 9.70622 14.363 8.75523C14.3842 8.71243 14.363 8.68046 14.3197 8.65829ZM10.8073 14.0002C10.1732 13.68 9.59324 13.2622 9.08869 12.7621C8.85511 12.5286 8.51119 12.1929 8.14871 11.7928C7.32113 11.7928 6.51779 11.8758 5.65876 12.1501C4.86108 12.3997 4.78632 13.3211 5.1354 13.8016C5.72579 14.5374 6.13983 14.9345 6.80035 15.6172C7.15039 15.9605 7.62046 16.1539 8.11077 16.1563C8.60109 16.1587 9.07303 15.9699 9.42643 15.6301C9.94205 15.1144 10.2592 14.7705 10.8418 14.11C10.8764 14.0749 10.863 14.0136 10.8068 14.0002H10.8073Z" fill="black"/>
</g>
<defs>
<clipPath id="clip0_0_6">
<rect width="16.5" height="16.5" fill="white" transform="translate(0 0.25)"/>
</clipPath>
</defs>
</svg>
